{"glyphs":{"0":{"ha":1085,"x_min":68,"x_max":1017,"o":"m 475 1085 l 475 271 l 610 271 l 610 1085 l 475 1085 m 1017 1356 l 1017 0 l 68 0 l 68 1356 l 1017 1356 z "},"1":{"ha":678,"x_min":68,"x_max":610,"o":"m 203 0 l 203 1085 l 68 1085 l 68 1356 l 610 1356 l 610 0 l 203 0 z "},"2":{"ha":1085,"x_min":68,"x_max":1017,"o":"m 68 0 l 68 678 l 203 678 l 203 814 l 610 814 l 610 1085 l 68 1085 l 68 1356 l 882 1356 l 882 1221 l 1017 1221 l 1017 678 l 882 678 l 882 543 l 475 543 l 475 271 l 1017 271 l 1017 0 l 68 0 z "},"3":{"ha":1085,"x_min":68,"x_max":1017,"o":"m 68 0 l 68 271 l 610 271 l 610 543 l 68 543 l 68 814 l 610 814 l 610 1085 l 68 1085 l 68 1356 l 882 1356 l 882 1221 l 1017 1221 l 1017 814 l 882 814 l 882 678 l 1017 678 l 1017 136 l 882 136 l 882 0 l 68 0 z "},"4":{"ha":1085,"x_min":68,"x_max":1017,"o":"m 475 1356 l 475 814 l 610 814 l 610 1356 l 1017 1356 l 1017 0 l 610 0 l 610 543 l 68 543 l 68 1356 l 475 1356 z "},"5":{"ha":1085,"x_min":68,"x_max":1017,"o":"m 1017 1356 l 1017 1085 l 475 1085 l 475 814 l 882 814 l 882 678 l 1017 678 l 1017 136 l 882 136 l 882 0 l 68 0 l 68 271 l 610 271 l 610 543 l 68 543 l 68 1356 l 1017 1356 z "},"6":{"ha":1085,"x_min":68,"x_max":1017,"o":"m 475 814 l 1017 814 l 1017 0 l 68 0 l 68 1356 l 1017 1356 l 1017 1085 l 475 1085 l 475 814 m 475 543 l 475 271 l 610 271 l 610 543 l 475 543 z "},"7":{"ha":1085,"x_min":68,"x_max":1017,"o":"m 339 0 l 339 678 l 475 678 l 475 814 l 610 814 l 610 1085 l 68 1085 l 68 1356 l 1017 1356 l 1017 814 l 882 814 l 882 678 l 746 678 l 746 0 l 339 0 z "},"8":{"ha":1085,"x_min":68,"x_max":1017,"o":"m 475 1085 l 475 814 l 610 814 l 610 1085 l 475 1085 m 475 543 l 475 271 l 610 271 l 610 543 l 475 543 m 68 1356 l 1017 1356 l 1017 814 l 882 814 l 882 678 l 1017 678 l 1017 0 l 68 0 l 68 678 l 203 678 l 203 814 l 68 814 l 68 1356 z "},"9":{"ha":1085,"x_min":68,"x_max":1017,"o":"m 610 543 l 68 543 l 68 1356 l 1017 1356 l 1017 0 l 68 0 l 68 271 l 610 271 l 610 543 m 610 814 l 610 1085 l 475 1085 l 475 814 l 610 814 z "}," ":{"ha":543,"x_min":0,"x_max":0,"o":""},"!":{"ha":543,"x_min":68,"x_max":475,"o":"m 475 1356 l 475 407 l 68 407 l 68 1356 l 475 1356 m 475 277 l 475 5 l 68 5 l 68 277 l 475 277 z "},"\"":{"ha":1085,"x_min":68,"x_max":1017,"o":"m 475 1356 l 475 949 l 339 949 l 339 814 l 68 814 l 68 949 l 203 949 l 203 1085 l 68 1085 l 68 1356 l 475 1356 m 1017 1356 l 1017 949 l 882 949 l 882 814 l 610 814 l 610 949 l 746 949 l 746 1085 l 610 1085 l 610 1356 l 1017 1356 z "},"#":{"ha":1356,"x_min":68,"x_max":1289,"o":"m 68 271 l 68 543 l 203 543 l 203 814 l 68 814 l 68 1085 l 203 1085 l 203 1356 l 610 1356 l 610 1085 l 746 1085 l 746 1356 l 1153 1356 l 1153 1085 l 1289 1085 l 1289 814 l 1153 814 l 1153 543 l 1289 543 l 1289 271 l 1153 271 l 1153 0 l 746 0 l 746 271 l 610 271 l 610 0 l 203 0 l 203 271 l 68 271 m 610 814 l 610 543 l 746 543 l 746 814 l 610 814 z "},"&":{"ha":1085,"x_min":68,"x_max":1017,"o":"m 475 271 l 610 271 l 610 543 l 475 543 l 475 271 m 475 814 l 1017 814 l 1017 136 l 882 136 l 882 0 l 203 0 l 203 136 l 68 136 l 68 678 l 203 678 l 203 814 l 68 814 l 68 1221 l 203 1221 l 203 1356 l 1017 1356 l 1017 1085 l 475 1085 l 475 814 z "},"'":{"ha":543,"x_min":68,"x_max":475,"o":"m 475 1356 l 475 949 l 339 949 l 339 814 l 68 814 l 68 949 l 203 949 l 203 1085 l 68 1085 l 68 1356 l 475 1356 z "},"(":{"ha":678,"x_min":68,"x_max":610,"o":"m 610 0 l 203 0 l 203 136 l 68 136 l 68 1221 l 203 1221 l 203 1356 l 610 1356 l 610 1085 l 475 1085 l 475 271 l 610 271 l 610 0 z "},")":{"ha":678,"x_min":68,"x_max":610,"o":"m 68 271 l 203 271 l 203 1085 l 68 1085 l 68 1356 l 475 1356 l 475 1221 l 610 1221 l 610 136 l 475 136 l 475 0 l 68 0 l 68 271 z "},",":{"ha":543,"x_min":68,"x_max":475,"o":"m 475 271 l 475 -136 l 339 -136 l 339 -271 l 68 -271 l 68 -136 l 203 -136 l 203 0 l 68 0 l 68 271 l 475 271 z "},"-":{"ha":678,"x_min":68,"x_max":610,"o":"m 68 808 l 610 808 l 610 537 l 68 537 l 68 808 z "},".":{"ha":543,"x_min":68,"x_max":475,"o":"m 475 271 l 475 0 l 68 0 l 68 271 l 475 271 z "},"=":{"ha":1085,"x_min":68,"x_max":1017,"o":"m 68 1356 l 68 0 l 475 0 l 475 407 l 610 407 l 610 0 l 1017 0 l 1017 1356 l 68 1356 m 475 882 l 475 949 l 339 949 l 339 1085 l 475 1085 l 475 949 l 610 949 l 610 1085 l 746 1085 l 746 949 l 610 949 l 610 882 l 678 882 l 678 678 l 610 678 l 610 746 l 475 746 l 475 678 l 407 678 l 407 882 l 475 882 z "},"?":{"ha":1085,"x_min":68,"x_max":1017,"o":"m 339 407 l 339 678 l 475 678 l 475 814 l 610 814 l 610 1085 l 68 1085 l 68 1356 l 882 1356 l 882 1221 l 1017 1221 l 1017 678 l 882 678 l 882 543 l 746 543 l 746 407 l 339 407 m 746 271 l 746 0 l 339 0 l 339 271 l 746 271 z "},"A":{"ha":1085,"x_min":68,"x_max":1017,"o":"m 1017 1356 l 1017 0 l 610 0 l 610 543 l 475 543 l 475 0 l 68 0 l 68 1356 l 1017 1356 m 475 1085 l 475 814 l 610 814 l 610 1085 l 475 1085 z "},"B":{"ha":1085,"x_min":68,"x_max":1017,"o":"m 1017 1356 l 1017 814 l 882 814 l 882 678 l 1017 678 l 1017 0 l 68 0 l 68 1356 l 1017 1356 m 475 1085 l 475 814 l 610 814 l 610 1085 l 475 1085 m 475 542 l 475 271 l 611 271 l 611 542 l 475 542 z "},"C":{"ha":1085,"x_min":68,"x_max":1017,"o":"m 1017 1356 l 1017 1085 l 475 1085 l 475 271 l 1017 271 l 1017 0 l 68 0 l 68 1356 l 1017 1356 z "},"D":{"ha":1085,"x_min":68,"x_max":1017,"o":"m 475 1085 l 475 271 l 610 271 l 610 1085 l 475 1085 m 882 1356 l 882 1221 l 1017 1221 l 1017 136 l 882 136 l 882 0 l 68 0 l 68 1356 l 882 1356 z "},"E":{"ha":1085,"x_min":68,"x_max":1017,"o":"m 475 814 l 1017 814 l 1017 543 l 475 543 l 475 271 l 1017 271 l 1017 0 l 68 0 l 68 1356 l 1017 1356 l 1017 1085 l 475 1085 l 475 814 z "},"F":{"ha":1085,"x_min":68,"x_max":1017,"o":"m 475 814 l 1017 814 l 1017 543 l 475 543 l 475 0 l 68 0 l 68 1356 l 1017 1356 l 1017 1085 l 475 1085 l 475 814 z "},"G":{"ha":1085,"x_min":68,"x_max":1017,"o":"m 610 271 l 610 814 l 1017 814 l 1017 0 l 68 0 l 68 1356 l 1017 1356 l 1017 1085 l 475 1085 l 475 271 l 610 271 z "},"H":{"ha":1085,"x_min":68,"x_max":1017,"o":"m 475 1356 l 475 814 l 610 814 l 610 1356 l 1017 1356 l 1017 0 l 610 0 l 610 543 l 475 543 l 475 0 l 68 0 l 68 1356 l 475 1356 z "},"I":{"ha":543,"x_min":68,"x_max":475,"o":"m 475 1356 l 475 0 l 68 0 l 68 1356 l 475 1356 z "},"J":{"ha":949,"x_min":68,"x_max":882,"o":"m 882 1356 l 882 0 l 68 0 l 68 271 l 475 271 l 475 1356 l 882 1356 z "},"K":{"ha":1085,"x_min":68,"x_max":1017,"o":"m 610 0 l 610 543 l 475 543 l 475 0 l 68 0 l 68 1356 l 475 1356 l 475 814 l 610 814 l 610 1356 l 1017 1356 l 1017 814 l 882 814 l 882 678 l 1017 678 l 1017 0 l 610 0 z "},"L":{"ha":949,"x_min":68,"x_max":882,"o":"m 475 1356 l 475 271 l 882 271 l 882 0 l 68 0 l 68 1356 l 475 1356 z "},"M":{"ha":1492,"x_min":68,"x_max":1424,"o":"m 475 1356 l 475 1085 l 610 1085 l 610 814 l 882 814 l 882 1085 l 1017 1085 l 1017 1356 l 1424 1356 l 1424 0 l 1017 0 l 1017 543 l 882 543 l 882 271 l 610 271 l 610 543 l 475 543 l 475 0 l 68 0 l 68 1356 l 475 1356 z "},"N":{"ha":1221,"x_min":68,"x_max":1153,"o":"m 475 1356 l 475 1085 l 610 1085 l 610 814 l 746 814 l 746 1356 l 1153 1356 l 1153 0 l 746 0 l 746 407 l 610 407 l 610 678 l 475 678 l 475 0 l 68 0 l 68 1356 l 475 1356 z "},"O":{"ha":1085,"x_min":68,"x_max":1017,"o":"m 475 1085 l 475 271 l 610 271 l 610 1085 l 475 1085 m 1017 1356 l 1017 0 l 68 0 l 68 1356 l 1017 1356 z "},"P":{"ha":1085,"x_min":68,"x_max":1017,"o":"m 475 543 l 475 0 l 68 0 l 68 1356 l 1017 1356 l 1017 543 l 475 543 m 475 1085 l 475 814 l 610 814 l 610 1085 l 475 1085 z "},"Q":{"ha":1085,"x_min":68,"x_max":1017,"o":"m 475 1085 l 475 271 l 610 271 l 610 1085 l 475 1085 m 1017 1356 l 1017 136 l 882 136 l 882 0 l 1017 0 l 1017 -271 l 610 -271 l 610 -136 l 475 -136 l 475 0 l 68 0 l 68 1356 l 1017 1356 z "},"R":{"ha":1085,"x_min":68,"x_max":1017,"o":"m 610 0 l 610 543 l 475 543 l 475 0 l 68 0 l 68 1356 l 1017 1356 l 1017 814 l 882 814 l 882 678 l 1017 678 l 1017 0 l 610 0 m 475 1085 l 475 814 l 610 814 l 610 1085 l 475 1085 z "},"S":{"ha":1085,"x_min":68,"x_max":1017,"o":"m 68 0 l 68 271 l 610 271 l 610 543 l 68 543 l 68 1356 l 1017 1356 l 1017 1085 l 475 1085 l 475 814 l 1017 814 l 1017 0 l 68 0 z "},"T":{"ha":1085,"x_min":68,"x_max":1017,"o":"m 1017 1356 l 1017 1085 l 746 1085 l 746 0 l 339 0 l 339 1085 l 68 1085 l 68 1356 l 1017 1356 z "},"U":{"ha":1085,"x_min":68,"x_max":1017,"o":"m 1017 1356 l 1017 0 l 68 0 l 68 1356 l 475 1356 l 475 271 l 610 271 l 610 1356 l 1017 1356 z "},"V":{"ha":1085,"x_min":68,"x_max":1017,"o":"m 475 1356 l 475 271 l 610 271 l 610 1356 l 1017 1356 l 1017 407 l 882 407 l 882 136 l 746 136 l 746 0 l 339 0 l 339 136 l 203 136 l 203 407 l 68 407 l 68 1356 l 475 1356 z "},"W":{"ha":1492,"x_min":68,"x_max":1424,"o":"m 1289 543 l 1289 0 l 882 0 l 882 271 l 610 271 l 610 0 l 203 0 l 203 543 l 68 543 l 68 1356 l 475 1356 l 475 543 l 610 543 l 610 1085 l 882 1085 l 882 543 l 1017 543 l 1017 1356 l 1424 1356 l 1424 543 l 1289 543 z "},"X":{"ha":1085,"x_min":68,"x_max":1017,"o":"m 475 1356 l 475 814 l 610 814 l 610 1356 l 1017 1356 l 1017 814 l 882 814 l 882 678 l 1017 678 l 1017 0 l 610 0 l 610 543 l 475 543 l 475 0 l 68 0 l 68 678 l 203 678 l 203 814 l 68 814 l 68 1356 l 475 1356 z "},"Y":{"ha":1085,"x_min":68,"x_max":1017,"o":"m 475 1356 l 475 814 l 610 814 l 610 1356 l 1017 1356 l 1017 543 l 746 543 l 746 0 l 339 0 l 339 543 l 68 543 l 68 1356 l 475 1356 z "},"Z":{"ha":1085,"x_min":68,"x_max":1017,"o":"m 68 0 l 68 543 l 203 543 l 203 678 l 339 678 l 339 814 l 475 814 l 475 949 l 610 949 l 610 1085 l 68 1085 l 68 1356 l 1017 1356 l 1017 814 l 882 814 l 882 678 l 746 678 l 746 543 l 610 543 l 610 407 l 475 407 l 475 271 l 1017 271 l 1017 0 l 68 0 z "},"[":{"ha":678,"x_min":68,"x_max":610,"o":"m 610 0 l 68 0 l 68 1356 l 610 1356 l 610 1085 l 475 1085 l 475 271 l 610 271 l 610 0 z "},"]":{"ha":678,"x_min":68,"x_max":610,"o":"m 68 271 l 203 271 l 203 1085 l 68 1085 l 68 1356 l 610 1356 l 610 0 l 68 0 l 68 271 z "},"a":{"ha":1085,"x_min":68,"x_max":1017,"o":"m 475 407 l 475 271 l 610 271 l 610 407 l 475 407 m 1017 1085 l 1017 0 l 68 0 l 68 678 l 610 678 l 610 814 l 68 814 l 68 1085 l 1017 1085 z "},"b":{"ha":1085,"x_min":68,"x_max":1017,"o":"m 475 814 l 475 271 l 610 271 l 610 814 l 475 814 m 475 1356 l 475 1085 l 1017 1085 l 1017 0 l 68 0 l 68 1356 l 475 1356 z "},"c":{"ha":1085,"x_min":68,"x_max":1017,"o":"m 1017 1085 l 1017 814 l 475 814 l 475 271 l 1017 271 l 1017 0 l 68 0 l 68 1085 l 1017 1085 z "},"d":{"ha":1085,"x_min":68,"x_max":1017,"o":"m 475 814 l 475 271 l 610 271 l 610 814 l 475 814 m 1017 1356 l 1017 0 l 68 0 l 68 1085 l 610 1085 l 610 1356 l 1017 1356 z "},"e":{"ha":1085,"x_min":68,"x_max":1017,"o":"m 610 678 l 610 814 l 475 814 l 475 678 l 610 678 m 68 0 l 68 1085 l 1017 1085 l 1017 407 l 475 407 l 475 271 l 1017 271 l 1017 0 l 68 0 z "},"f":{"ha":814,"x_min":68,"x_max":746,"o":"m 475 949 l 746 949 l 746 678 l 475 678 l 475 0 l 68 0 l 68 1356 l 746 1356 l 746 1085 l 475 1085 l 475 949 z "},"g":{"ha":1085,"x_min":68,"x_max":1017,"o":"m 610 407 l 610 814 l 475 814 l 475 407 l 610 407 m 68 -271 l 68 0 l 610 0 l 610 136 l 68 136 l 68 1085 l 1017 1085 l 1017 -271 l 68 -271 z "},"h":{"ha":1085,"x_min":68,"x_max":1017,"o":"m 68 0 l 68 1356 l 475 1356 l 475 1085 l 1017 1085 l 1017 0 l 610 0 l 610 814 l 475 814 l 475 0 l 68 0 z "},"i":{"ha":543,"x_min":68,"x_max":475,"o":"m 68 5 l 68 955 l 475 955 l 475 5 l 68 5 m 68 1085 l 68 1356 l 475 1356 l 475 1085 l 68 1085 z "},"j":{"ha":814,"x_min":68,"x_max":746,"o":"m 746 949 l 746 -271 l 68 -271 l 68 0 l 339 0 l 339 949 l 746 949 m 339 1085 l 339 1356 l 746 1356 l 746 1085 l 339 1085 z "},"k":{"ha":1085,"x_min":68,"x_max":1017,"o":"m 610 0 l 610 407 l 475 407 l 475 0 l 68 0 l 68 1356 l 475 1356 l 475 678 l 610 678 l 610 1085 l 1017 1085 l 1017 678 l 882 678 l 882 543 l 1017 543 l 1017 0 l 610 0 z "},"l":{"ha":543,"x_min":68,"x_max":475,"o":"m 475 1356 l 475 0 l 68 0 l 68 1356 l 475 1356 z "},"m":{"ha":1628,"x_min":68,"x_max":1560,"o":"m 1560 1085 l 1560 0 l 1153 0 l 1153 814 l 1017 814 l 1017 0 l 610 0 l 610 814 l 475 814 l 475 0 l 68 0 l 68 1085 l 746 1085 l 746 949 l 882 949 l 882 1085 l 1560 1085 z "},"n":{"ha":1085,"x_min":68,"x_max":1017,"o":"m 1017 1085 l 1017 0 l 610 0 l 610 814 l 475 814 l 475 0 l 68 0 l 68 1085 l 1017 1085 z "},"o":{"ha":1085,"x_min":68,"x_max":1017,"o":"m 475 814 l 475 271 l 610 271 l 610 814 l 475 814 m 1017 1085 l 1017 0 l 68 0 l 68 1085 l 1017 1085 z "},"p":{"ha":1085,"x_min":68,"x_max":1017,"o":"m 610 271 l 610 814 l 475 814 l 475 271 l 610 271 m 68 -407 l 68 1085 l 1017 1085 l 1017 0 l 475 0 l 475 -407 l 68 -407 z "},"q":{"ha":1085,"x_min":68,"x_max":1017,"o":"m 610 271 l 610 814 l 475 814 l 475 271 l 610 271 m 610 -407 l 610 0 l 68 0 l 68 1085 l 1017 1085 l 1017 -407 l 610 -407 z "},"r":{"ha":949,"x_min":68,"x_max":882,"o":"m 882 1085 l 882 814 l 475 814 l 475 0 l 68 0 l 68 1085 l 882 1085 z "},"s":{"ha":1085,"x_min":68,"x_max":1017,"o":"m 68 0 l 68 271 l 610 271 l 610 407 l 68 407 l 68 1085 l 1017 1085 l 1017 814 l 475 814 l 475 678 l 1017 678 l 1017 0 l 68 0 z "},"t":{"ha":814,"x_min":68,"x_max":746,"o":"m 475 271 l 746 271 l 746 0 l 68 0 l 68 1356 l 475 1356 l 475 1085 l 746 1085 l 746 814 l 475 814 l 475 271 z "},"u":{"ha":1085,"x_min":68,"x_max":1017,"o":"m 68 0 l 68 1085 l 475 1085 l 475 271 l 610 271 l 610 1085 l 1017 1085 l 1017 0 l 68 0 z "},"v":{"ha":1085,"x_min":68,"x_max":1017,"o":"m 475 1085 l 475 271 l 610 271 l 610 1085 l 1017 1085 l 1017 407 l 882 407 l 882 136 l 746 136 l 746 0 l 339 0 l 339 136 l 203 136 l 203 407 l 68 407 l 68 1085 l 475 1085 z "},"w":{"ha":1492,"x_min":68,"x_max":1424,"o":"m 1289 271 l 1289 0 l 882 0 l 882 136 l 610 136 l 610 0 l 203 0 l 203 271 l 68 271 l 68 1085 l 475 1085 l 475 407 l 610 407 l 610 949 l 882 949 l 882 407 l 1017 407 l 1017 1085 l 1424 1085 l 1424 271 l 1289 271 z "},"x":{"ha":1085,"x_min":68,"x_max":1017,"o":"m 475 1085 l 475 678 l 610 678 l 610 1085 l 1017 1085 l 1017 678 l 882 678 l 882 543 l 1017 543 l 1017 0 l 610 0 l 610 407 l 475 407 l 475 0 l 68 0 l 68 543 l 203 543 l 203 678 l 68 678 l 68 1085 l 475 1085 z "},"y":{"ha":1085,"x_min":68,"x_max":1017,"o":"m 1017 1085 l 1017 -271 l 68 -271 l 68 0 l 610 0 l 610 136 l 68 136 l 68 1085 l 475 1085 l 475 407 l 610 407 l 610 1085 l 1017 1085 z "},"z":{"ha":1085,"x_min":68,"x_max":1017,"o":"m 68 0 l 68 407 l 203 407 l 203 543 l 339 543 l 339 678 l 475 678 l 475 814 l 68 814 l 68 1085 l 1017 1085 l 1017 678 l 882 678 l 882 543 l 746 543 l 746 407 l 610 407 l 610 271 l 1017 271 l 1017 0 l 68 0 z "}," ":{"ha":543,"x_min":0,"x_max":0,"o":""},"¡":{"ha":543,"x_min":68,"x_max":475,"o":"m 68 5 l 68 955 l 475 955 l 475 5 l 68 5 m 68 1085 l 68 1356 l 475 1356 l 475 1085 l 68 1085 z "},"¿":{"ha":1085,"x_min":68,"x_max":1017,"o":"m 746 949 l 746 678 l 610 678 l 610 543 l 475 543 l 475 271 l 1017 271 l 1017 0 l 203 0 l 203 136 l 68 136 l 68 678 l 203 678 l 203 814 l 339 814 l 339 949 l 746 949 m 339 1085 l 339 1356 l 746 1356 l 746 1085 l 339 1085 z "},"À":{"ha":1085,"x_min":68,"x_max":1017,"o":"m 1017 1356 l 1017 0 l 610 0 l 610 543 l 475 543 l 475 0 l 68 0 l 68 1356 l 1017 1356 m 475 1085 l 475 814 l 610 814 l 610 1085 l 475 1085 m 339 1492 l 339 1628 l 203 1628 l 203 1763 l 610 1763 l 610 1628 l 746 1628 l 746 1492 l 339 1492 z "},"Á":{"ha":1085,"x_min":68,"x_max":1017,"o":"m 1017 1356 l 1017 0 l 610 0 l 610 543 l 475 543 l 475 0 l 68 0 l 68 1356 l 1017 1356 m 475 1085 l 475 814 l 610 814 l 610 1085 l 475 1085 m 339 1492 l 339 1628 l 475 1628 l 475 1763 l 882 1763 l 882 1628 l 746 1628 l 746 1492 l 339 1492 z "},"Â":{"ha":1085,"x_min":68,"x_max":1017,"o":"m 1017 1356 l 1017 0 l 610 0 l 610 543 l 475 543 l 475 0 l 68 0 l 68 1356 l 1017 1356 m 475 1085 l 475 814 l 610 814 l 610 1085 l 475 1085 m 203 1628 l 203 1763 l 882 1763 l 882 1628 l 1017 1628 l 1017 1492 l 610 1492 l 610 1628 l 475 1628 l 475 1492 l 68 1492 l 68 1628 l 203 1628 z "},"Ã":{"ha":1085,"x_min":68,"x_max":1017,"o":"m 1017 1356 l 1017 0 l 610 0 l 610 543 l 475 543 l 475 0 l 68 0 l 68 1356 l 1017 1356 m 475 1085 l 475 814 l 610 814 l 610 1085 l 475 1085 m 68 1763 l 610 1763 l 610 1628 l 746 1628 l 746 1763 l 1017 1763 l 1017 1492 l 475 1492 l 475 1628 l 339 1628 l 339 1492 l 68 1492 l 68 1763 z "},"Ä":{"ha":1085,"x_min":68,"x_max":1017,"o":"m 1017 1356 l 1017 0 l 610 0 l 610 543 l 475 543 l 475 0 l 68 0 l 68 1356 l 1017 1356 m 475 1085 l 475 814 l 610 814 l 610 1085 l 475 1085 m 475 1763 l 475 1492 l 68 1492 l 68 1763 l 475 1763 m 1017 1763 l 1017 1492 l 610 1492 l 610 1763 l 1017 1763 z "},"Å":{"ha":1085,"x_min":68,"x_max":1017,"o":"m 1017 1356 l 1017 0 l 610 0 l 610 543 l 475 543 l 475 0 l 68 0 l 68 1356 l 1017 1356 m 475 1085 l 475 814 l 610 814 l 610 1085 l 475 1085 m 339 1492 l 339 1763 l 746 1763 l 746 1492 l 339 1492 z "},"Æ":{"ha":1628,"x_min":68,"x_max":1560,"o":"m 1560 1356 l 1560 1085 l 1017 1085 l 1017 814 l 1560 814 l 1560 543 l 1017 543 l 1017 271 l 1560 271 l 1560 0 l 610 0 l 610 543 l 475 543 l 475 0 l 68 0 l 68 1356 l 1560 1356 m 475 1085 l 475 814 l 610 814 l 610 1085 l 475 1085 z "},"Ç":{"ha":1085,"x_min":68,"x_max":1017,"o":"m 1017 1356 l 1017 1085 l 475 1085 l 475 271 l 1017 271 l 1017 0 l 68 0 l 68 1356 l 1017 1356 m 339 -407 l 339 -271 l 475 -271 l 475 -136 l 882 -136 l 882 -271 l 746 -271 l 746 -407 l 339 -407 z "},"È":{"ha":1085,"x_min":68,"x_max":1017,"o":"m 475 814 l 1017 814 l 1017 543 l 475 543 l 475 271 l 1017 271 l 1017 0 l 68 0 l 68 1356 l 1017 1356 l 1017 1085 l 475 1085 l 475 814 m 339 1492 l 339 1628 l 203 1628 l 203 1763 l 610 1763 l 610 1628 l 746 1628 l 746 1492 l 339 1492 z "},"É":{"ha":1085,"x_min":68,"x_max":1017,"o":"m 475 814 l 1017 814 l 1017 543 l 475 543 l 475 271 l 1017 271 l 1017 0 l 68 0 l 68 1356 l 1017 1356 l 1017 1085 l 475 1085 l 475 814 m 339 1492 l 339 1628 l 475 1628 l 475 1763 l 882 1763 l 882 1628 l 746 1628 l 746 1492 l 339 1492 z "},"Ê":{"ha":1085,"x_min":68,"x_max":1017,"o":"m 475 814 l 1017 814 l 1017 543 l 475 543 l 475 271 l 1017 271 l 1017 0 l 68 0 l 68 1356 l 1017 1356 l 1017 1085 l 475 1085 l 475 814 m 203 1628 l 203 1763 l 882 1763 l 882 1628 l 1017 1628 l 1017 1492 l 610 1492 l 610 1628 l 475 1628 l 475 1492 l 68 1492 l 68 1628 l 203 1628 z "},"Ë":{"ha":1085,"x_min":68,"x_max":1017,"o":"m 475 814 l 1017 814 l 1017 543 l 475 543 l 475 271 l 1017 271 l 1017 0 l 68 0 l 68 1356 l 1017 1356 l 1017 1085 l 475 1085 l 475 814 m 475 1763 l 475 1492 l 68 1492 l 68 1763 l 475 1763 m 1017 1763 l 1017 1492 l 610 1492 l 610 1763 l 1017 1763 z "},"Ì":{"ha":543,"x_min":-68,"x_max":475,"o":"m 68 1492 l 68 1628 l -68 1628 l -68 1763 l 339 1763 l 339 1628 l 475 1628 l 475 1492 l 68 1492 m 475 1356 l 475 0 l 68 0 l 68 1356 l 475 1356 z "},"Í":{"ha":543,"x_min":68,"x_max":610,"o":"m 68 1492 l 68 1628 l 203 1628 l 203 1763 l 610 1763 l 610 1628 l 475 1628 l 475 1492 l 68 1492 m 475 1356 l 475 0 l 68 0 l 68 1356 l 475 1356 z "},"Î":{"ha":1085,"x_min":68,"x_max":1017,"o":"m 746 1356 l 746 0 l 339 0 l 339 1356 l 746 1356 m 203 1628 l 203 1763 l 882 1763 l 882 1628 l 1017 1628 l 1017 1492 l 610 1492 l 610 1628 l 475 1628 l 475 1492 l 68 1492 l 68 1628 l 203 1628 z "},"Ï":{"ha":1085,"x_min":68,"x_max":1017,"o":"m 746 1356 l 746 0 l 339 0 l 339 1356 l 746 1356 m 475 1763 l 475 1492 l 68 1492 l 68 1763 l 475 1763 m 1017 1763 l 1017 1492 l 610 1492 l 610 1763 l 1017 1763 z "},"Ñ":{"ha":1221,"x_min":68,"x_max":1153,"o":"m 475 1356 l 475 1085 l 610 1085 l 610 814 l 746 814 l 746 1356 l 1153 1356 l 1153 0 l 746 0 l 746 407 l 610 407 l 610 678 l 475 678 l 475 0 l 68 0 l 68 1356 l 475 1356 m 68 1763 l 746 1763 l 746 1628 l 882 1628 l 882 1763 l 1153 1763 l 1153 1492 l 475 1492 l 475 1628 l 339 1628 l 339 1492 l 68 1492 l 68 1763 z "},"Ò":{"ha":1085,"x_min":68,"x_max":1017,"o":"m 339 1492 l 339 1628 l 203 1628 l 203 1763 l 610 1763 l 610 1628 l 746 1628 l 746 1492 l 339 1492 m 475 1085 l 475 271 l 610 271 l 610 1085 l 475 1085 m 1017 1356 l 1017 0 l 68 0 l 68 1356 l 1017 1356 z "},"Ó":{"ha":1085,"x_min":68,"x_max":1017,"o":"m 339 1492 l 339 1628 l 475 1628 l 475 1763 l 882 1763 l 882 1628 l 746 1628 l 746 1492 l 339 1492 m 475 1085 l 475 271 l 610 271 l 610 1085 l 475 1085 m 1017 1356 l 1017 0 l 68 0 l 68 1356 l 1017 1356 z "},"Ô":{"ha":1085,"x_min":68,"x_max":1017,"o":"m 203 1628 l 203 1763 l 882 1763 l 882 1628 l 1017 1628 l 1017 1492 l 610 1492 l 610 1628 l 475 1628 l 475 1492 l 68 1492 l 68 1628 l 203 1628 m 475 1085 l 475 271 l 610 271 l 610 1085 l 475 1085 m 1017 1356 l 1017 0 l 68 0 l 68 1356 l 1017 1356 z "},"Õ":{"ha":1085,"x_min":68,"x_max":1017,"o":"m 68 1763 l 610 1763 l 610 1628 l 746 1628 l 746 1763 l 1017 1763 l 1017 1492 l 475 1492 l 475 1628 l 339 1628 l 339 1492 l 68 1492 l 68 1763 m 475 1085 l 475 271 l 610 271 l 610 1085 l 475 1085 m 1017 1356 l 1017 0 l 68 0 l 68 1356 l 1017 1356 z "},"Ö":{"ha":1085,"x_min":68,"x_max":1017,"o":"m 475 1763 l 475 1492 l 68 1492 l 68 1763 l 475 1763 m 1017 1763 l 1017 1492 l 610 1492 l 610 1763 l 1017 1763 m 475 1085 l 475 271 l 610 271 l 610 1085 l 475 1085 m 1017 1356 l 1017 0 l 68 0 l 68 1356 l 1017 1356 z "},"Ø":{"ha":1221,"x_min":68,"x_max":1153,"o":"m 1153 1351 l 1153 -5 l 68 -5 l 68 1351 l 1153 1351 m 746 271 l 746 543 l 610 543 l 610 407 l 475 407 l 475 271 l 746 271 m 475 1085 l 475 814 l 610 814 l 610 949 l 746 949 l 746 1085 l 475 1085 z "},"Ù":{"ha":1085,"x_min":68,"x_max":1017,"o":"m 1017 1356 l 1017 0 l 68 0 l 68 1356 l 475 1356 l 475 271 l 610 271 l 610 1356 l 1017 1356 m 339 1492 l 339 1628 l 203 1628 l 203 1763 l 610 1763 l 610 1628 l 746 1628 l 746 1492 l 339 1492 z "},"Ú":{"ha":1085,"x_min":68,"x_max":1017,"o":"m 1017 1356 l 1017 0 l 68 0 l 68 1356 l 475 1356 l 475 271 l 610 271 l 610 1356 l 1017 1356 m 339 1492 l 339 1628 l 475 1628 l 475 1763 l 882 1763 l 882 1628 l 746 1628 l 746 1492 l 339 1492 z "},"Û":{"ha":1085,"x_min":68,"x_max":1017,"o":"m 1017 1356 l 1017 0 l 68 0 l 68 1356 l 475 1356 l 475 271 l 610 271 l 610 1356 l 1017 1356 m 203 1628 l 203 1763 l 882 1763 l 882 1628 l 1017 1628 l 1017 1492 l 610 1492 l 610 1628 l 475 1628 l 475 1492 l 68 1492 l 68 1628 l 203 1628 z "},"Ü":{"ha":1085,"x_min":68,"x_max":1017,"o":"m 1017 1356 l 1017 0 l 68 0 l 68 1356 l 475 1356 l 475 271 l 610 271 l 610 1356 l 1017 1356 m 475 1763 l 475 1492 l 68 1492 l 68 1763 l 475 1763 m 1017 1763 l 1017 1492 l 610 1492 l 610 1763 l 1017 1763 z "},"Ý":{"ha":1085,"x_min":68,"x_max":1017,"o":"m 475 1356 l 475 814 l 610 814 l 610 1356 l 1017 1356 l 1017 543 l 746 543 l 746 0 l 339 0 l 339 543 l 68 543 l 68 1356 l 475 1356 m 339 1492 l 339 1628 l 475 1628 l 475 1763 l 882 1763 l 882 1628 l 746 1628 l 746 1492 l 339 1492 z "},"Þ":{"ha":1085,"x_min":68,"x_max":1017,"o":"m 475 271 l 475 0 l 68 0 l 68 1356 l 475 1356 l 475 1085 l 1017 1085 l 1017 271 l 475 271 m 475 814 l 475 543 l 610 543 l 610 814 l 475 814 z "},"ß":{"ha":1221,"x_min":68,"x_max":1153,"o":"m 68 0 l 68 1356 l 1153 1356 l 1153 814 l 1017 814 l 1017 678 l 1153 678 l 1153 0 l 610 0 l 610 271 l 747 271 l 747 542 l 610 543 l 610 814 l 746 814 l 746 1085 l 475 1085 l 475 0 l 68 0 z "},"à":{"ha":1085,"x_min":68,"x_max":1017,"o":"m 475 407 l 475 271 l 610 271 l 610 407 l 475 407 m 1017 1085 l 1017 0 l 68 0 l 68 678 l 610 678 l 610 814 l 68 814 l 68 1085 l 1017 1085 m 339 1221 l 339 1356 l 203 1356 l 203 1492 l 610 1492 l 610 1356 l 746 1356 l 746 1221 l 339 1221 z "},"á":{"ha":1085,"x_min":68,"x_max":1017,"o":"m 475 407 l 475 271 l 610 271 l 610 407 l 475 407 m 1017 1085 l 1017 0 l 68 0 l 68 678 l 610 678 l 610 814 l 68 814 l 68 1085 l 1017 1085 m 339 1221 l 339 1356 l 475 1356 l 475 1492 l 882 1492 l 882 1356 l 746 1356 l 746 1221 l 339 1221 z "},"â":{"ha":1085,"x_min":68,"x_max":1017,"o":"m 475 407 l 475 271 l 610 271 l 610 407 l 475 407 m 1017 1085 l 1017 0 l 68 0 l 68 678 l 610 678 l 610 814 l 68 814 l 68 1085 l 1017 1085 m 203 1356 l 203 1492 l 882 1492 l 882 1356 l 1017 1356 l 1017 1221 l 610 1221 l 610 1356 l 475 1356 l 475 1221 l 68 1221 l 68 1356 l 203 1356 z "},"ã":{"ha":1085,"x_min":68,"x_max":1017,"o":"m 475 407 l 475 271 l 610 271 l 610 407 l 475 407 m 1017 1085 l 1017 0 l 68 0 l 68 678 l 610 678 l 610 814 l 68 814 l 68 1085 l 1017 1085 m 68 1492 l 610 1492 l 610 1356 l 746 1356 l 746 1492 l 1017 1492 l 1017 1221 l 475 1221 l 475 1356 l 339 1356 l 339 1221 l 68 1221 l 68 1492 z "},"ä":{"ha":1085,"x_min":68,"x_max":1017,"o":"m 475 407 l 475 271 l 610 271 l 610 407 l 475 407 m 1017 1085 l 1017 0 l 68 0 l 68 678 l 610 678 l 610 814 l 68 814 l 68 1085 l 1017 1085 m 475 1492 l 475 1221 l 68 1221 l 68 1492 l 475 1492 m 1017 1492 l 1017 1221 l 610 1221 l 610 1492 l 1017 1492 z "},"å":{"ha":1085,"x_min":68,"x_max":1017,"o":"m 475 407 l 475 271 l 610 271 l 610 407 l 475 407 m 1017 1085 l 1017 0 l 68 0 l 68 678 l 610 678 l 610 814 l 68 814 l 68 1085 l 1017 1085 m 339 1221 l 339 1492 l 746 1492 l 746 1221 l 339 1221 z "},"æ":{"ha":1628,"x_min":68,"x_max":1560,"o":"m 610 271 l 610 407 l 475 407 l 475 271 l 610 271 m 1153 678 l 1153 814 l 1017 814 l 1017 678 l 1153 678 m 610 814 l 68 814 l 68 1085 l 1560 1085 l 1560 407 l 1017 407 l 1017 271 l 1560 271 l 1560 0 l 68 0 l 68 678 l 610 678 l 610 814 z "},"ç":{"ha":1085,"x_min":68,"x_max":1017,"o":"m 1017 1085 l 1017 814 l 475 814 l 475 271 l 1017 271 l 1017 0 l 68 0 l 68 1085 l 1017 1085 m 882 -136 l 882 -271 l 746 -271 l 746 -407 l 339 -407 l 339 -271 l 475 -271 l 475 -136 l 882 -136 z "},"è":{"ha":1085,"x_min":68,"x_max":1017,"o":"m 610 678 l 610 814 l 475 814 l 475 678 l 610 678 m 68 0 l 68 1085 l 1017 1085 l 1017 407 l 475 407 l 475 271 l 1017 271 l 1017 0 l 68 0 m 339 1221 l 339 1356 l 203 1356 l 203 1492 l 610 1492 l 610 1356 l 746 1356 l 746 1221 l 339 1221 z "},"é":{"ha":1085,"x_min":68,"x_max":1017,"o":"m 610 678 l 610 814 l 475 814 l 475 678 l 610 678 m 68 0 l 68 1085 l 1017 1085 l 1017 407 l 475 407 l 475 271 l 1017 271 l 1017 0 l 68 0 m 339 1221 l 339 1356 l 475 1356 l 475 1492 l 882 1492 l 882 1356 l 746 1356 l 746 1221 l 339 1221 z "},"ê":{"ha":1085,"x_min":68,"x_max":1017,"o":"m 610 678 l 610 814 l 475 814 l 475 678 l 610 678 m 68 0 l 68 1085 l 1017 1085 l 1017 407 l 475 407 l 475 271 l 1017 271 l 1017 0 l 68 0 m 203 1356 l 203 1492 l 882 1492 l 882 1356 l 1017 1356 l 1017 1221 l 610 1221 l 610 1356 l 475 1356 l 475 1221 l 68 1221 l 68 1356 l 203 1356 z "},"ë":{"ha":1085,"x_min":68,"x_max":1017,"o":"m 610 678 l 610 814 l 475 814 l 475 678 l 610 678 m 68 0 l 68 1085 l 1017 1085 l 1017 407 l 475 407 l 475 271 l 1017 271 l 1017 0 l 68 0 m 475 1492 l 475 1221 l 68 1221 l 68 1492 l 475 1492 m 1017 1492 l 1017 1221 l 610 1221 l 610 1492 l 1017 1492 z "},"ì":{"ha":543,"x_min":-68,"x_max":475,"o":"m 68 1221 l 68 1356 l -68 1356 l -68 1492 l 339 1492 l 339 1356 l 475 1356 l 475 1221 l 68 1221 m 475 1085 l 475 0 l 68 0 l 68 1085 l 475 1085 z "},"í":{"ha":543,"x_min":68,"x_max":610,"o":"m 68 1221 l 68 1356 l 203 1356 l 203 1492 l 610 1492 l 610 1356 l 475 1356 l 475 1221 l 68 1221 m 475 1085 l 475 0 l 68 0 l 68 1085 l 475 1085 z "},"î":{"ha":1085,"x_min":68,"x_max":1017,"o":"m 746 1085 l 746 0 l 339 0 l 339 1085 l 746 1085 m 203 1356 l 203 1492 l 882 1492 l 882 1356 l 1017 1356 l 1017 1221 l 610 1221 l 610 1356 l 475 1356 l 475 1221 l 68 1221 l 68 1356 l 203 1356 z "},"ï":{"ha":1085,"x_min":68,"x_max":1017,"o":"m 746 1085 l 746 0 l 339 0 l 339 1085 l 746 1085 m 475 1492 l 475 1221 l 68 1221 l 68 1492 l 475 1492 m 1017 1492 l 1017 1221 l 610 1221 l 610 1492 l 1017 1492 z "},"ñ":{"ha":1085,"x_min":68,"x_max":1017,"o":"m 1017 1085 l 1017 0 l 610 0 l 610 814 l 475 814 l 475 0 l 68 0 l 68 1085 l 1017 1085 m 68 1492 l 610 1492 l 610 1356 l 746 1356 l 746 1492 l 1017 1492 l 1017 1221 l 475 1221 l 475 1356 l 339 1356 l 339 1221 l 68 1221 l 68 1492 z "},"ò":{"ha":1085,"x_min":68,"x_max":1017,"o":"m 475 814 l 475 271 l 610 271 l 610 814 l 475 814 m 1017 1085 l 1017 0 l 68 0 l 68 1085 l 1017 1085 m 339 1221 l 339 1356 l 203 1356 l 203 1492 l 610 1492 l 610 1356 l 746 1356 l 746 1221 l 339 1221 z "},"ó":{"ha":1085,"x_min":68,"x_max":1017,"o":"m 475 814 l 475 271 l 610 271 l 610 814 l 475 814 m 1017 1085 l 1017 0 l 68 0 l 68 1085 l 1017 1085 m 339 1221 l 339 1356 l 475 1356 l 475 1492 l 882 1492 l 882 1356 l 746 1356 l 746 1221 l 339 1221 z "},"ô":{"ha":1085,"x_min":68,"x_max":1017,"o":"m 475 814 l 475 271 l 610 271 l 610 814 l 475 814 m 1017 1085 l 1017 0 l 68 0 l 68 1085 l 1017 1085 m 203 1356 l 203 1492 l 882 1492 l 882 1356 l 1017 1356 l 1017 1221 l 610 1221 l 610 1356 l 475 1356 l 475 1221 l 68 1221 l 68 1356 l 203 1356 z "},"õ":{"ha":1085,"x_min":68,"x_max":1017,"o":"m 475 814 l 475 271 l 610 271 l 610 814 l 475 814 m 1017 1085 l 1017 0 l 68 0 l 68 1085 l 1017 1085 m 68 1492 l 610 1492 l 610 1356 l 746 1356 l 746 1492 l 1017 1492 l 1017 1221 l 475 1221 l 475 1356 l 339 1356 l 339 1221 l 68 1221 l 68 1492 z "},"ö":{"ha":1085,"x_min":68,"x_max":1017,"o":"m 475 814 l 475 271 l 610 271 l 610 814 l 475 814 m 1017 1085 l 1017 0 l 68 0 l 68 1085 l 1017 1085 m 475 1492 l 475 1221 l 68 1221 l 68 1492 l 475 1492 m 1017 1492 l 1017 1221 l 610 1221 l 610 1492 l 1017 1492 z "},"ø":{"ha":1221,"x_min":68,"x_max":1153,"o":"m 1153 1080 l 1153 -5 l 68 -5 l 68 1080 l 1153 1080 m 475 814 l 475 543 l 610 543 l 610 678 l 746 678 l 746 814 l 475 814 m 746 271 l 746 543 l 610 543 l 610 407 l 475 407 l 475 271 l 746 271 z "},"ù":{"ha":1085,"x_min":68,"x_max":1017,"o":"m 339 1221 l 339 1356 l 203 1356 l 203 1492 l 610 1492 l 610 1356 l 746 1356 l 746 1221 l 339 1221 m 68 0 l 68 1085 l 475 1085 l 475 271 l 610 271 l 610 1085 l 1017 1085 l 1017 0 l 68 0 z "},"ú":{"ha":1085,"x_min":68,"x_max":1017,"o":"m 339 1221 l 339 1356 l 475 1356 l 475 1492 l 882 1492 l 882 1356 l 746 1356 l 746 1221 l 339 1221 m 68 0 l 68 1085 l 475 1085 l 475 271 l 610 271 l 610 1085 l 1017 1085 l 1017 0 l 68 0 z "},"û":{"ha":1085,"x_min":68,"x_max":1017,"o":"m 203 1356 l 203 1492 l 882 1492 l 882 1356 l 1017 1356 l 1017 1221 l 610 1221 l 610 1356 l 475 1356 l 475 1221 l 68 1221 l 68 1356 l 203 1356 m 68 0 l 68 1085 l 475 1085 l 475 271 l 610 271 l 610 1085 l 1017 1085 l 1017 0 l 68 0 z "},"ü":{"ha":1085,"x_min":68,"x_max":1017,"o":"m 475 1492 l 475 1221 l 68 1221 l 68 1492 l 475 1492 m 1017 1492 l 1017 1221 l 610 1221 l 610 1492 l 1017 1492 m 68 0 l 68 1085 l 475 1085 l 475 271 l 610 271 l 610 1085 l 1017 1085 l 1017 0 l 68 0 z "},"ý":{"ha":1085,"x_min":68,"x_max":1017,"o":"m 339 1221 l 339 1356 l 475 1356 l 475 1492 l 882 1492 l 882 1356 l 746 1356 l 746 1221 l 339 1221 m 1017 1085 l 1017 -271 l 68 -271 l 68 0 l 610 0 l 610 136 l 68 136 l 68 1085 l 475 1085 l 475 407 l 610 407 l 610 1085 l 1017 1085 z "},"þ":{"ha":1085,"x_min":68,"x_max":1017,"o":"m 475 0 l 475 -271 l 68 -271 l 68 1356 l 475 1356 l 475 1085 l 1017 1085 l 1017 0 l 475 0 m 475 814 l 475 271 l 610 271 l 610 814 l 475 814 z "},"ÿ":{"ha":1085,"x_min":68,"x_max":1017,"o":"m 475 1492 l 475 1221 l 68 1221 l 68 1492 l 475 1492 m 1017 1492 l 1017 1221 l 610 1221 l 610 1492 l 1017 1492 m 1017 1085 l 1017 -271 l 68 -271 l 68 0 l 610 0 l 610 136 l 68 136 l 68 1085 l 475 1085 l 475 407 l 610 407 l 610 1085 l 1017 1085 z "},"Č":{"ha":1085,"x_min":68,"x_max":1017,"o":"m 1017 1356 l 1017 1085 l 475 1085 l 475 271 l 1017 271 l 1017 0 l 68 0 l 68 1356 l 1017 1356 z "},"č":{"ha":1085,"x_min":68,"x_max":1017,"o":"m 1017 1085 l 1017 814 l 475 814 l 475 271 l 1017 271 l 1017 0 l 68 0 l 68 1085 l 1017 1085 z "},"Ď":{"ha":1085,"x_min":68,"x_max":1017,"o":"m 475 1085 l 475 271 l 610 271 l 610 1085 l 475 1085 m 882 1356 l 882 1221 l 1017 1221 l 1017 136 l 882 136 l 882 0 l 68 0 l 68 1356 l 882 1356 m 68 1628 l 68 1763 l 475 1763 l 475 1628 l 610 1628 l 610 1763 l 1017 1763 l 1017 1628 l 882 1628 l 882 1492 l 203 1492 l 203 1628 l 68 1628 z "},"ď":{"ha":1628,"x_min":68,"x_max":1560,"o":"m 475 814 l 475 271 l 610 271 l 610 814 l 475 814 m 1017 1356 l 1017 0 l 68 0 l 68 1085 l 610 1085 l 610 1356 l 1017 1356 m 1560 1356 l 1560 949 l 1424 949 l 1424 814 l 1153 814 l 1153 949 l 1289 949 l 1289 1085 l 1153 1085 l 1153 1356 l 1560 1356 z "},"Ě":{"ha":1085,"x_min":68,"x_max":1017,"o":"m 475 814 l 1017 814 l 1017 543 l 475 543 l 475 271 l 1017 271 l 1017 0 l 68 0 l 68 1356 l 1017 1356 l 1017 1085 l 475 1085 l 475 814 m 68 1628 l 68 1763 l 475 1763 l 475 1628 l 610 1628 l 610 1763 l 1017 1763 l 1017 1628 l 882 1628 l 882 1492 l 203 1492 l 203 1628 l 68 1628 z "},"ě":{"ha":1085,"x_min":68,"x_max":1017,"o":"m 610 678 l 610 814 l 475 814 l 475 678 l 610 678 m 68 0 l 68 1085 l 1017 1085 l 1017 407 l 475 407 l 475 271 l 1017 271 l 1017 0 l 68 0 m 68 1356 l 68 1492 l 475 1492 l 475 1356 l 610 1356 l 610 1492 l 1017 1492 l 1017 1356 l 882 1356 l 882 1221 l 203 1221 l 203 1356 l 68 1356 z "},"ı":{"ha":543,"x_min":68,"x_max":475,"o":"m 475 1085 l 475 0 l 68 0 l 68 1085 l 475 1085 z "},"Ň":{"ha":1221,"x_min":68,"x_max":1153,"o":"m 475 1356 l 475 1085 l 610 1085 l 610 814 l 746 814 l 746 1356 l 1153 1356 l 1153 0 l 746 0 l 746 271 l 610 271 l 610 543 l 475 543 l 475 0 l 68 0 l 68 1356 l 475 1356 m 68 1628 l 68 1763 l 475 1763 l 475 1628 l 746 1628 l 746 1763 l 1153 1763 l 1153 1628 l 1017 1628 l 1017 1492 l 203 1492 l 203 1628 l 68 1628 z "},"ň":{"ha":1085,"x_min":68,"x_max":1017,"o":"m 1017 1085 l 1017 0 l 610 0 l 610 814 l 475 814 l 475 0 l 68 0 l 68 1085 l 1017 1085 m 68 1356 l 68 1492 l 475 1492 l 475 1356 l 610 1356 l 610 1492 l 1017 1492 l 1017 1356 l 882 1356 l 882 1221 l 203 1221 l 203 1356 l 68 1356 z "},"Œ":{"ha":1628,"x_min":68,"x_max":1560,"o":"m 1560 1356 l 1560 1085 l 1017 1085 l 1017 814 l 1560 814 l 1560 543 l 1017 543 l 1017 271 l 1560 271 l 1560 0 l 68 0 l 68 1356 l 1560 1356 m 475 1085 l 475 271 l 610 271 l 610 1085 l 475 1085 z "},"œ":{"ha":1628,"x_min":68,"x_max":1560,"o":"m 610 271 l 610 814 l 475 814 l 475 271 l 610 271 m 1153 678 l 1153 814 l 1017 814 l 1017 678 l 1153 678 m 68 1085 l 1560 1085 l 1560 407 l 1017 407 l 1017 271 l 1560 271 l 1560 0 l 68 0 l 68 1085 z "},"Ř":{"ha":1085,"x_min":68,"x_max":1017,"o":"m 610 0 l 610 543 l 475 543 l 475 0 l 68 0 l 68 1356 l 1017 1356 l 1017 814 l 882 814 l 882 678 l 1017 678 l 1017 0 l 610 0 m 475 1085 l 475 814 l 610 814 l 610 1085 l 475 1085 m 68 1628 l 68 1763 l 475 1763 l 475 1628 l 610 1628 l 610 1763 l 1017 1763 l 1017 1628 l 882 1628 l 882 1492 l 203 1492 l 203 1628 l 68 1628 z "},"ř":{"ha":949,"x_min":68,"x_max":882,"o":"m 882 1085 l 882 814 l 475 814 l 475 0 l 68 0 l 68 1085 l 882 1085 m 68 1356 l 68 1492 l 339 1492 l 339 1356 l 610 1356 l 610 1492 l 882 1492 l 882 1356 l 746 1356 l 746 1221 l 203 1221 l 203 1356 l 68 1356 z "},"Š":{"ha":1085,"x_min":68,"x_max":1017,"o":"m 68 0 l 68 271 l 610 271 l 610 543 l 68 543 l 68 1356 l 1017 1356 l 1017 1085 l 475 1085 l 475 814 l 1017 814 l 1017 0 l 68 0 m 68 1628 l 68 1763 l 475 1763 l 475 1628 l 610 1628 l 610 1763 l 1017 1763 l 1017 1628 l 882 1628 l 882 1492 l 203 1492 l 203 1628 l 68 1628 z "},"š":{"ha":1085,"x_min":68,"x_max":1017,"o":"m 68 0 l 68 271 l 610 271 l 610 407 l 68 407 l 68 1085 l 1017 1085 l 1017 814 l 475 814 l 475 678 l 1017 678 l 1017 0 l 68 0 m 68 1356 l 68 1492 l 475 1492 l 475 1356 l 610 1356 l 610 1492 l 1017 1492 l 1017 1356 l 882 1356 l 882 1221 l 203 1221 l 203 1356 l 68 1356 z "},"Ť":{"ha":1085,"x_min":68,"x_max":1017,"o":"m 1017 1356 l 1017 1085 l 746 1085 l 746 0 l 339 0 l 339 1085 l 68 1085 l 68 1356 l 1017 1356 m 68 1628 l 68 1763 l 475 1763 l 475 1628 l 610 1628 l 610 1763 l 1017 1763 l 1017 1628 l 882 1628 l 882 1492 l 203 1492 l 203 1628 l 68 1628 z "},"ť":{"ha":1356,"x_min":68,"x_max":1289,"o":"m 475 271 l 746 271 l 746 0 l 68 0 l 68 1356 l 475 1356 l 475 1085 l 746 1085 l 746 814 l 475 814 l 475 271 m 1289 1356 l 1289 949 l 1153 949 l 1153 814 l 882 814 l 882 949 l 1017 949 l 1017 1085 l 882 1085 l 882 1356 l 1289 1356 z "},"Ů":{"ha":1085,"x_min":68,"x_max":1017,"o":"m 1017 1356 l 1017 0 l 68 0 l 68 1356 l 475 1356 l 475 271 l 610 271 l 610 1356 l 1017 1356 m 746 1763 l 746 1492 l 339 1492 l 339 1763 l 746 1763 z "},"ů":{"ha":1085,"x_min":68,"x_max":1017,"o":"m 746 1492 l 746 1221 l 339 1221 l 339 1492 l 746 1492 m 68 0 l 68 1085 l 475 1085 l 475 271 l 610 271 l 610 1085 l 1017 1085 l 1017 0 l 68 0 z "},"Ÿ":{"ha":1085,"x_min":68,"x_max":1017,"o":"m 475 1356 l 475 814 l 610 814 l 610 1356 l 1017 1356 l 1017 543 l 746 543 l 746 0 l 339 0 l 339 543 l 68 543 l 68 1356 l 475 1356 m 475 1763 l 475 1492 l 68 1492 l 68 1763 l 475 1763 m 1017 1763 l 1017 1492 l 610 1492 l 610 1763 l 1017 1763 z "},"Ž":{"ha":1085,"x_min":68,"x_max":1017,"o":"m 68 0 l 68 543 l 203 543 l 203 678 l 339 678 l 339 814 l 475 814 l 475 949 l 610 949 l 610 1085 l 68 1085 l 68 1356 l 1017 1356 l 1017 814 l 882 814 l 882 678 l 746 678 l 746 543 l 610 543 l 610 407 l 475 407 l 475 271 l 1017 271 l 1017 0 l 68 0 m 68 1628 l 68 1763 l 475 1763 l 475 1628 l 610 1628 l 610 1763 l 1017 1763 l 1017 1628 l 882 1628 l 882 1492 l 203 1492 l 203 1628 l 68 1628 z "},"ž":{"ha":1085,"x_min":68,"x_max":1017,"o":"m 68 0 l 68 407 l 203 407 l 203 543 l 339 543 l 339 678 l 475 678 l 475 814 l 68 814 l 68 1085 l 1017 1085 l 1017 678 l 882 678 l 882 543 l 746 543 l 746 407 l 610 407 l 610 271 l 1017 271 l 1017 0 l 68 0 m 68 1356 l 68 1492 l 475 1492 l 475 1356 l 610 1356 l 610 1492 l 1017 1492 l 1017 1356 l 882 1356 l 882 1221 l 203 1221 l 203 1356 l 68 1356 z "},"ƒ":{"ha":814,"x_min":68,"x_max":746,"o":"m 475 949 l 746 949 l 746 678 l 475 678 l 475 -271 l 68 -271 l 68 1356 l 746 1356 l 746 1085 l 475 1085 l 475 949 z "},"–":{"ha":678,"x_min":68,"x_max":610,"o":"m 68 808 l 610 808 l 610 537 l 68 537 l 68 808 z "},"—":{"ha":949,"x_min":68,"x_max":882,"o":"m 68 808 l 882 808 l 882 537 l 68 537 l 68 808 z "},"‘":{"ha":543,"x_min":68,"x_max":475,"o":"m 475 1356 l 475 1085 l 339 1085 l 339 949 l 475 949 l 475 814 l 203 814 l 203 949 l 68 949 l 68 1356 l 475 1356 z "},"’":{"ha":543,"x_min":68,"x_max":475,"o":"m 475 1356 l 475 949 l 339 949 l 339 814 l 68 814 l 68 949 l 203 949 l 203 1085 l 68 1085 l 68 1356 l 475 1356 z "},"“":{"ha":1085,"x_min":68,"x_max":1017,"o":"m 1017 1356 l 1017 1085 l 882 1085 l 882 949 l 1017 949 l 1017 814 l 746 814 l 746 949 l 610 949 l 610 1356 l 1017 1356 m 475 1356 l 475 1085 l 339 1085 l 339 949 l 475 949 l 475 814 l 203 814 l 203 949 l 68 949 l 68 1356 l 475 1356 z "},"”":{"ha":1085,"x_min":68,"x_max":1017,"o":"m 475 1356 l 475 949 l 339 949 l 339 814 l 68 814 l 68 949 l 203 949 l 203 1085 l 68 1085 l 68 1356 l 475 1356 m 1017 1356 l 1017 949 l 882 949 l 882 814 l 610 814 l 610 949 l 746 949 l 746 1085 l 610 1085 l 610 1356 l 1017 1356 z "},"…":{"ha":1628,"x_min":68,"x_max":1560,"o":"m 1017 271 l 1017 0 l 610 0 l 610 271 l 1017 271 m 1560 271 l 1560 0 l 1153 0 l 1153 271 l 1560 271 m 475 272 l 475 1 l 68 1 l 68 272 l 475 272 z "}}}
